<?xml version="1.0" standalone="no"?>
<!DOCTYPE svg PUBLIC "-//W3C//DTD SVG 20010904//EN"
 "http://www.w3.org/TR/2001/REC-SVG-20010904/DTD/svg10.dtd">
<svg version="1.0" xmlns="http://www.w3.org/2000/svg"
 width="3000.000000pt" height="3000.000000pt" viewBox="0 0 3000.000000 3000.000000"
 preserveAspectRatio="xMidYMid meet">
<metadata>
Created by potrace 1.11, written by Peter Selinger 2001-2013
</metadata>
<g transform="translate(0.000000,3000.000000) scale(0.100000,-0.100000)"
fill="#000000" stroke="none">
<path d="M14528 29875 c-2 -1 -77 -6 -168 -9 -163 -7 -228 -11 -385 -22 -44
-3 -107 -7 -140 -10 -98 -6 -166 -12 -235 -19 -36 -4 -83 -8 -105 -11 -22 -2
-62 -6 -90 -9 -27 -3 -72 -8 -100 -11 -27 -3 -61 -7 -75 -9 -14 -2 -52 -6 -86
-10 -33 -3 -71 -7 -85 -10 -13 -2 -105 -15 -204 -29 -99 -15 -189 -28 -201
-30 -12 -2 -45 -7 -75 -11 -30 -4 -56 -8 -59 -10 -3 -2 -26 -6 -50 -10 -25 -3
-52 -8 -60 -10 -8 -2 -31 -6 -50 -9 -19 -3 -46 -8 -60 -11 -14 -3 -41 -8 -60
-11 -51 -8 -329 -63 -370 -74 -19 -5 -48 -12 -65 -15 -16 -3 -106 -23 -200
-45 -93 -23 -181 -43 -195 -46 -14 -3 -65 -16 -115 -29 -112 -30 -205 -55
-225 -60 -569 -148 -1426 -450 -2015 -710 -334 -148 -805 -375 -1025 -495
-130 -70 -202 -110 -275 -150 -393 -215 -991 -595 -1410 -894 -283 -202 -824
-627 -1021 -802 -12 -11 -45 -39 -74 -64 -29 -25 -62 -53 -74 -63 -11 -10 -54
-49 -95 -85 -41 -37 -83 -75 -95 -85 -180 -157 -726 -701 -946 -943 -108 -118
-151 -167 -210 -233 -36 -41 -69 -79 -75 -85 -5 -6 -35 -40 -65 -76 -30 -36
-57 -67 -60 -70 -3 -3 -46 -54 -95 -115 -49 -60 -92 -112 -95 -115 -13 -11
-301 -382 -380 -490 -47 -63 -89 -119 -93 -125 -4 -5 -40 -55 -79 -110 -337
-472 -641 -955 -943 -1500 -155 -279 -412 -796 -525 -1055 -21 -47 -56 -127
-79 -179 -23 -51 -62 -143 -87 -205 -25 -61 -49 -120 -54 -131 -16 -34 -137
-349 -145 -375 -4 -14 -13 -38 -20 -55 -63 -149 -273 -789 -355 -1085 -50
-182 -92 -338 -96 -360 -2 -14 -7 -32 -10 -40 -3 -8 -8 -26 -10 -40 -3 -14
-12 -52 -21 -85 -8 -33 -16 -67 -18 -75 -2 -8 -13 -55 -25 -105 -12 -49 -24
-101 -26 -115 -3 -14 -11 -53 -19 -86 -8 -34 -17 -74 -19 -90 -3 -15 -10 -50
-16 -78 -13 -63 -16 -80 -36 -186 -9 -47 -18 -94 -20 -105 -2 -11 -7 -33 -9
-50 -3 -16 -14 -79 -25 -140 -10 -60 -22 -130 -25 -155 -3 -25 -8 -52 -10 -60
-2 -8 -6 -37 -10 -65 -3 -27 -10 -75 -15 -105 -5 -30 -12 -77 -15 -105 -3 -27
-8 -61 -10 -75 -7 -45 -32 -261 -40 -340 -3 -30 -7 -75 -10 -100 -3 -25 -7
-72 -10 -105 -5 -65 -12 -140 -20 -236 -5 -56 -11 -136 -20 -289 -27 -453 -27
-1270 0 -1735 7 -126 16 -264 20 -300 2 -22 7 -76 10 -120 6 -76 9 -109 20
-215 3 -25 7 -70 10 -100 3 -30 7 -71 10 -90 3 -19 7 -57 10 -85 3 -27 7 -63
9 -80 3 -16 7 -52 11 -80 6 -44 30 -217 40 -285 2 -14 7 -45 11 -70 4 -25 8
-54 10 -65 2 -17 42 -254 59 -350 12 -69 27 -143 36 -185 5 -25 25 -121 45
-214 19 -94 37 -172 39 -175 1 -3 6 -24 9 -46 4 -22 11 -58 17 -80 6 -22 12
-47 14 -55 23 -114 149 -584 226 -840 83 -274 278 -849 314 -927 8 -17 15 -36
15 -42 0 -6 7 -27 16 -48 22 -49 21 -47 105 -258 39 -99 81 -200 91 -225 11
-25 26 -58 33 -75 30 -71 89 -206 122 -275 19 -41 51 -111 71 -155 38 -83 310
-628 340 -680 9 -16 38 -68 63 -115 26 -47 60 -110 76 -140 107 -196 404 -690
443 -737 5 -7 10 -15 10 -18 0 -8 296 -450 385 -575 42 -58 83 -116 92 -130
67 -97 361 -482 473 -619 30 -37 66 -82 80 -100 14 -18 33 -42 44 -54 10 -12
37 -44 60 -71 22 -27 68 -81 102 -120 33 -39 71 -84 85 -100 13 -15 33 -38 44
-50 11 -13 54 -61 95 -107 78 -88 169 -186 280 -303 97 -104 503 -510 596
-596 170 -159 202 -188 299 -275 154 -138 227 -201 369 -319 72 -59 154 -127
181 -150 28 -23 82 -66 120 -96 39 -30 72 -57 75 -60 6 -7 437 -330 467 -350
12 -8 79 -56 150 -106 122 -87 491 -335 598 -402 306 -191 694 -417 955 -556
138 -74 592 -301 700 -350 47 -21 117 -54 155 -71 394 -183 915 -388 1400
-551 306 -102 700 -223 700 -214 0 1 13 -4 29 -10 24 -9 252 -71 316 -85 8 -2
42 -11 75 -20 33 -9 89 -23 125 -31 58 -13 171 -39 210 -49 21 -5 349 -75 380
-80 14 -3 36 -7 50 -10 14 -3 48 -9 75 -15 61 -12 61 -12 310 -54 110 -19 218
-37 240 -40 22 -2 87 -11 145 -20 58 -8 130 -18 160 -22 30 -4 64 -8 75 -9 67
-9 225 -28 250 -30 92 -8 193 -18 210 -21 11 -2 61 -6 110 -10 50 -3 106 -7
125 -9 19 -2 87 -7 150 -11 63 -4 133 -8 155 -9 193 -14 471 -20 860 -20 459
0 727 8 1020 30 44 4 107 8 140 10 70 5 185 15 235 20 19 2 64 7 100 10 36 3
76 8 90 10 14 2 54 7 90 10 36 3 76 8 90 10 14 2 52 6 86 10 33 3 71 7 85 10
13 2 60 9 105 15 44 6 89 12 100 14 10 2 42 7 69 10 28 4 61 9 75 11 51 8 386
65 410 70 14 3 50 9 80 15 30 5 66 12 80 14 43 10 179 37 203 41 138 26 593
135 865 209 669 181 1559 498 2110 752 42 20 93 43 112 51 259 116 953 465
1040 522 14 9 50 30 80 45 30 16 67 37 82 48 14 10 29 18 32 18 9 0 554 327
566 340 3 3 41 28 85 55 268 165 782 529 1099 779 71 55 143 112 161 126 44
34 178 143 240 196 28 23 73 61 100 84 72 61 166 142 185 160 9 8 54 49 101
90 46 41 89 79 95 85 360 330 804 778 1074 1085 51 58 98 110 104 115 6 6 47
53 91 105 44 52 82 97 85 100 3 3 24 28 45 55 22 28 45 55 51 60 6 6 26 30 45
55 18 25 42 54 52 65 34 37 266 334 377 485 456 614 831 1206 1202 1895 62
114 301 593 351 703 222 484 397 914 550 1352 72 208 134 389 142 420 2 8 29
98 60 200 47 153 101 341 119 410 42 161 106 411 110 430 2 14 14 66 26 115
12 50 23 99 26 110 2 11 17 83 33 160 16 77 32 151 34 165 3 14 15 77 27 140
12 63 24 126 26 140 3 14 7 37 10 52 3 15 7 41 9 58 3 18 6 39 9 49 3 9 8 36
11 61 3 25 10 70 15 100 5 30 11 71 14 90 35 248 46 323 51 370 3 30 8 66 10
80 2 14 6 54 10 90 4 36 9 79 11 95 2 17 6 62 9 100 3 39 8 84 10 100 2 17 7
68 11 115 3 47 8 101 9 120 2 19 6 85 10 145 3 61 8 128 10 150 27 253 27
1439 0 1730 -3 28 -7 97 -10 155 -3 58 -8 121 -10 140 -2 19 -6 71 -10 115 -6
90 -14 175 -20 220 -2 17 -6 62 -10 100 -3 39 -8 84 -10 100 -2 17 -7 55 -10
85 -3 30 -8 66 -10 80 -2 14 -6 43 -9 65 -6 46 -23 169 -32 235 -3 25 -26 164
-50 310 -25 146 -47 276 -49 290 -2 14 -8 45 -13 70 -6 25 -20 95 -32 155 -12
61 -23 117 -25 125 -2 8 -11 49 -20 90 -10 41 -21 93 -25 115 -16 75 -130 530
-162 640 -33 119 -99 344 -128 440 -159 532 -456 1305 -715 1860 -83 179 -324
660 -394 787 -37 67 -83 152 -103 188 -90 169 -411 703 -448 747 -5 7 -10 15
-10 18 0 9 -302 460 -388 580 -40 55 -77 108 -84 119 -30 43 -329 439 -402
531 -153 192 -367 450 -465 560 -92 103 -198 222 -211 235 -8 9 -62 67 -120
130 -112 122 -543 556 -676 680 -108 101 -270 249 -319 291 -21 19 -46 41 -55
49 -9 8 -45 40 -80 70 -36 30 -83 71 -105 90 -65 57 -361 301 -425 350 -25 19
-47 37 -50 40 -9 11 -511 384 -595 443 -692 482 -1327 858 -2020 1197 -270
132 -289 141 -470 222 -60 27 -123 55 -140 63 -16 7 -91 39 -165 70 -74 31
-144 60 -155 65 -70 31 -119 50 -126 50 -5 0 -28 9 -52 19 -98 44 -385 149
-692 255 -187 64 -663 211 -719 222 -10 2 -33 8 -50 13 -40 13 -254 70 -286
77 -14 3 -43 10 -65 16 -22 6 -44 12 -50 14 -5 1 -80 18 -165 39 -85 20 -166
39 -180 42 -14 2 -53 10 -88 18 -34 8 -74 17 -90 20 -15 2 -81 15 -147 29 -66
13 -136 27 -155 30 -19 3 -46 8 -60 11 -100 21 -574 96 -760 119 -25 4 -56 8
-70 10 -14 2 -54 7 -90 11 -36 4 -78 8 -95 10 -16 2 -57 7 -90 10 -33 3 -71 7
-85 10 -14 2 -61 7 -105 10 -44 3 -100 8 -125 10 -25 3 -81 7 -125 10 -44 3
-93 7 -110 9 -16 3 -99 7 -182 11 -84 4 -170 9 -190 11 -42 5 -1140 14 -1145
9z"/>
</g>
</svg>
