<?xml version="1.0" encoding="UTF-8" standalone="no"?>
<!DOCTYPE svg PUBLIC "-//W3C//DTD SVG 1.1//EN" "http://www.w3.org/Graphics/SVG/1.1/DTD/svg11.dtd">
<svg width="100%" height="100%" viewBox="0 0 1000 1000" version="1.1" xmlns="http://www.w3.org/2000/svg" xmlns:xlink="http://www.w3.org/1999/xlink" xml:space="preserve" xmlns:serif="http://www.serif.com/" style="fill-rule:evenodd;clip-rule:evenodd;stroke-linejoin:round;stroke-miterlimit:2;">
    <g id="Layer-2" serif:id="Layer 2" transform="matrix(1.4026,0,0,1.4026,-203.526,-204.224)">
        <g transform="matrix(0,-1,-1,0,501.589,155.604)">
            <path d="M-346.482,-346.482C-537.84,-346.482 -692.964,-191.356 -692.964,0C-692.964,191.356 -537.84,346.482 -346.482,346.482C-155.125,346.482 0,191.356 0,0C0,-191.356 -155.125,-346.482 -346.482,-346.482" style="fill:rgb(255,248,0);fill-rule:nonzero;"/>
        </g>
        <g transform="matrix(1,0,0,1,501.589,838.569)">
            <path d="M0,-672.965C-185.537,-672.965 -336.482,-522.02 -336.482,-336.483C-336.482,-150.945 -185.537,0 0,0C185.537,0 336.482,-150.945 336.482,-336.483C336.482,-522.02 185.537,-672.965 0,-672.965M0,20C-48.121,20 -94.807,10.573 -138.762,-8.019C-181.213,-25.974 -219.335,-51.676 -252.071,-84.411C-284.807,-117.147 -310.509,-155.27 -328.464,-197.72C-347.056,-241.676 -356.482,-288.362 -356.482,-336.483C-356.482,-384.603 -347.056,-431.289 -328.464,-475.245C-310.509,-517.695 -284.807,-555.818 -252.071,-588.554C-219.335,-621.289 -181.213,-646.991 -138.762,-664.947C-94.807,-683.538 -48.121,-692.965 0,-692.965C48.12,-692.965 94.807,-683.538 138.762,-664.947C181.213,-646.991 219.335,-621.289 252.071,-588.554C284.807,-555.818 310.509,-517.695 328.464,-475.245C347.056,-431.289 356.482,-384.603 356.482,-336.483C356.482,-288.362 347.056,-241.676 328.464,-197.72C310.509,-155.27 284.807,-117.147 252.071,-84.411C219.335,-51.676 181.213,-25.974 138.762,-8.019C94.807,10.573 48.12,20 0,20" style="fill-rule:nonzero;"/>
        </g>
        <g transform="matrix(1,0,0,1,367.718,410.379)">
            <path d="M0,-36.841L37.819,-36.841L33.188,0.769L-4.623,0.844L0,-36.841ZM-40.716,68.511L-12.924,68.511L-8.008,28.438L29.781,28.438L24.886,68.187L53.001,68.187L57.822,28.438L92.427,28.438L95.659,0.646L61.184,0.714L65.738,-36.841L101.153,-36.841L104.384,-64.633L69.1,-64.564L74.007,-105.029L46.215,-105.029L41.226,-64.509L3.385,-64.434L8.405,-105.352L-19.71,-105.352L-24.661,-64.379L-59.783,-64.31L-63.338,-36.841L-27.988,-36.841L-32.547,0.898L-68.509,0.969L-72.063,28.438L-35.875,28.438L-40.716,68.511Z" style="fill:rgb(5,5,5);fill-rule:nonzero;"/>
        </g>
        <g transform="matrix(1,0,0,1,711.06,323.151)">
            <path d="M0,154.223L-2.723,119.566L-111.149,85.404L-9.654,35.152L-12.625,0L-143.825,68.571L-140.607,108.179L0,154.223Z" style="fill:rgb(5,5,5);fill-rule:nonzero;"/>
        </g>
        <g transform="matrix(1,0,0,1,659.86,639.05)">
            <path d="M0,-10.069C-4.68,-0.523 -14.224,5.839 -27.699,5.278C-41.175,4.716 -106.493,-4.08 -124.461,-4.641C-142.429,-5.203 -151.6,12.203 -163.952,25.679C-173.123,2.846 -180.609,-7.823 -192.775,-11.566C-204.94,-15.309 -266.328,-20.549 -283.36,-22.608C-300.392,-24.667 -306.755,-26.351 -312.744,-38.517C-318.733,-50.683 -315.177,-70.521 -315.177,-70.521L-349.24,-74.452C-349.24,-74.452 -351.861,-60.415 -351.486,-38.33C-351.112,-16.245 -348.117,-1.834 -329.775,6.402C-311.434,14.637 -258.092,20.064 -224.965,22.497C-191.837,24.931 -187.533,29.61 -184.351,37.283C-181.169,44.955 -184.675,60.199 -184.675,60.199C-184.675,60.199 -177.436,61.216 -150.292,64.383C-149.274,46.513 -147.351,41.989 -141.131,36.899C-134.911,31.809 -124.505,33.618 -93.063,36.897C-61.62,40.176 -37.417,46.057 -10.159,45.152C17.099,44.246 26.485,27.846 32.479,10.202C38.474,-7.441 39.154,-31.647 39.154,-31.647L5.45,-35.266C5.45,-35.266 4.68,-19.615 0,-10.069" style="fill:rgb(5,5,5);fill-rule:nonzero;"/>
        </g>
    </g>
</svg>
