<svg height="512" viewBox="0 0 60 60" width="512" xmlns="http://www.w3.org/2000/svg"><g id="Page-1" fill="none" fill-rule="evenodd"><g id="086---Desktop-Calendar" fill-rule="nonzero"><rect id="Rectangle-path" fill="#ffdc00" height="54" rx="3" width="52" x="1" y="5"/><path id="Shape" d="m50 5h-3c1.6568542 0 3 1.34314575 3 3v48c0 1.6568542-1.3431458 3-3 3h3c1.6568542 0 3-1.3431458 3-3v-48c0-1.65685425-1.3431458-3-3-3z" fill="#fec108"/><path id="Shape" d="m53 56.0000098 3.892-.0000098c.6090093.0018564 1.1888296-.2607623 1.5891056-.7197557s.5815789-1.0691487.4968944-1.6722443l-5.978-41.608z" fill="#ff9801"/><path id="Shape" d="m58.978 53.608-5.978-41.608v20.879l2.978 20.729c.0846845.6030956-.0966184 1.2132509-.4968944 1.6722443s-.9800963.7216121-1.5891056.7197557h3c.6090093.0018564 1.1888296-.2607623 1.5891056-.7197557s.5815789-1.0691487.4968944-1.6722443z" fill="#f57c00"/><path id="Shape" d="m49 11v6h-44v-6c.0032948-1.10320187.89679813-1.9967052 2-2h40c1.1032019.0032948 1.9967052.89679813 2 2z" fill="#f44335"/><path id="Shape" d="m47 9h-3c1.1032019.0032948 1.9967052.89679813 2 2v6h3v-6c-.0032948-1.10320187-.8967981-1.9967052-2-2z" fill="#c81e1e"/><path id="Shape" d="m49 17v30.17c-.0002413.5329123-.2125227 1.0438267-.59 1.42l-5.82 5.82c-.3761733.3774773-.8870877.5897587-1.42.59h-34.17c-1.10320187-.0032948-1.9967052-.8967981-2-2v-36z" fill="#f5f5f5"/><path id="Shape" d="m46 17v30.17c-.0002413.5329123-.2125227 1.0438267-.59 1.42l-5.82 5.82c-.3761733.3774773-.8870877.5897587-1.42.59h3c.5329123-.0002413 1.0438267-.2125227 1.42-.59l5.82-5.82c.3774773-.3761733.5897587-.8870877.59-1.42v-30.17z" fill="#cfd8dc"/><path id="Shape" d="m48.82 48c-.100256.2196188-.2391253.4194552-.41.59l-5.82 5.82c-.1705448.1708747-.3703812.309744-.59.41v-4.82c.0032948-1.1032019.8967981-1.9967052 2-2z" fill="#cfd8dc"/><g fill="#000"><path id="Shape" d="m54 11.925v-3.925c0-2.209139-1.790861-4-4-4h-6.695c-1.1521138-2.44201512-3.6098511-4.0000168-6.31-4.0000168s-5.1578862 1.55800168-6.31 4.0000168h-6.38c-1.1521138-2.44201512-3.6098511-4.0000168-6.31-4.0000168s-5.1578862 1.55800168-6.31 4.0000168h-7.685c-2.209139 0-4 1.790861-4 4v48c0 2.209139 1.790861 4 4 4h46c1.8184116-.0068148 3.4034067-1.2393149 3.858-3h3.035c.8990256.0018941 1.7545937-.3865952 2.3448395-1.0647254s.8570264-1.5791013.7311605-2.4692746zm-17-9.925c1.5735638.00094287 3.0551074.74171469 4 2h-7.974c.936398-1.25456809 2.4085092-1.99543933 3.974-2zm0 12c.5522847 0 1-.4477153 1-1s-.4477153-1-1-1c-1.5654908-.0045607-3.037602-.7454319-3.974-2h13.974c.5522847 0 1 .4477153 1 1v5h-42v-5c0-.5522847.44771525-1 1-1h4.685c1.1572781 2.439763 3.614681 3.9963127 6.315 4 .5522847 0 1-.4477153 1-1s-.4477153-1-1-1c-1.5654908-.0045607-3.037602-.7454319-3.974-2h16.659c1.1572781 2.439763 3.614681 3.9963127 6.315 4zm11 33h-4c-1.6568542 0-3 1.3431458-3 3v4h-34c-.55228475 0-1-.4477153-1-1v-35h42zm-1.414 2-3.586 3.586v-2.586c0-.5522847.4477153-1 1-1zm-33.486-41c-.134694-.65986324-.134694-1.34013676 0-2h16.98c-.0504602.33100131-.077195.66518627-.08 1 .002805.33481373.0295398.66899869.08 1zm4.9-6c1.5735638.00094287 3.0551074.74171469 4 2h-7.974c.936398-1.25456809 2.4085092-1.99543933 3.974-2zm34 54c0 1.1045695-.8954305 2-2 2h-46c-1.1045695 0-2-.8954305-2-2v-48c0-1.1045695.8954305-2 2-2h7.08c-.0504602.33100131-.077195.66518627-.08 1 .002805.33481373.0295398.66899869.08 1h-4.08c-1.65685425 0-3 1.34314575-3 3v42c0 1.6568542 1.34314575 3 3 3h34.172c.7960678.0022673 1.5599041-.3142872 2.121-.879l5.828-5.828c.5647128-.5610959.8812673-1.3249322.879-2.121v-36.172c0-1.65685425-1.3431458-3-3-3h-14.9c-.134694-.65986324-.134694-1.34013676 0-2h17.9c1.1045695 0 2 .8954305 2 2zm5.733-1.383c-.2097822.2453422-.5172074.3855134-.84.383l-2.893.0000332v-29.0060332l3.988 27.757c.047037.3121582-.046302.6291449-.255.866z"/><path id="Shape" d="m19 44c3.3123376-.0033074 5.9966926-2.6876624 6-6v-8c-.0000001-3.3137084-2.6862916-5.9999999-6-5.9999999s-5.9999999 2.6862915-6 5.9999999v8c.0033074 3.3123376 2.6876624 5.9966926 6 6zm-4-14c0-2.209139 1.790861-4 4-4s4 1.790861 4 4v8c0 2.209139-1.790861 4-4 4s-4-1.790861-4-4z"/><path id="Shape" d="m30 42c-.5522847 0-1 .4477153-1 1s.4477153 1 1 1h8c.5522847 0 1-.4477153 1-1s-.4477153-1-1-1h-3v-17c-.0000863-.4043959-.2437275-.7689341-.6173454-.923678-.373618-.1547439-.8036603-.0692299-1.0896546.216678l-4 4c-.3789722.3923789-.3735524 1.0160848.0121814 1.4018186s1.0094397.3911536 1.4018186.0121814l2.293-2.293v14.586z"/><path id="Shape" d="m38 47h-23c-.5522847 0-1 .4477153-1 1s.4477153 1 1 1h23c.5522847 0 1-.4477153 1-1s-.4477153-1-1-1z"/></g></g></g></svg>