<svg id="Layer_1" enable-background="new 0 0 512 512" height="512" viewBox="0 0 512 512" width="512" xmlns="http://www.w3.org/2000/svg"><g id="XMLID_1_"><g id="XMLID_4049_"><path id="XMLID_1352_" d="m256 185.3h110.8c16.1 0 29.2-13.1 29.2-29.2 0-16.1-13.1-29.2-29.2-29.2h-110.8z" fill="#ef937e"/><path id="XMLID_1349_" d="m256 185.3h-110.8c-16.1 0-29.2-13.1-29.2-29.2 0-16.1 13.1-29.2 29.2-29.2h110.8z" fill="#ef937e"/><path id="XMLID_1359_" d="m256 284.8c-52.8 0-95.7-42.8-95.7-95.7v-149h191.3v149c.1 52.9-42.8 95.7-95.6 95.7z" fill="#f7c8a9"/><path id="XMLID_731_" d="m351.6 63.7h-191.3v63.3h41.3c9.9 0 19.2-4.9 24.8-13.2l29.6-44 29.6 43.9c5.6 8.3 14.9 13.2 24.8 13.2h41.2z" fill="#ef937e"/><path id="XMLID_923_" d="m351.6 192.6-95.6 30.6-95.6-30.6c1.8 51.3 43.9 92.3 95.6 92.3 51.7-.1 93.8-41.1 95.6-92.3z" fill="#ef937e"/><g id="XMLID_1358_"><path id="XMLID_869_" d="m202 138h31v10h-31z" fill="#323d2c"/></g><g id="XMLID_1357_"><path id="XMLID_868_" d="m228 162h10v22h-10z" fill="#323d2c"/></g><g id="XMLID_1356_"><path id="XMLID_866_" d="m279 138h31v10h-31z" fill="#323d2c"/></g><g id="XMLID_1355_"><path id="XMLID_865_" d="m274 162h10v22h-10z" fill="#323d2c"/></g><path id="XMLID_1346_" d="m256 28c-8.7-14.3-24.2-23-40.9-23h-2c-49.5 0-86 46.3-74.5 94.4l6.6 27.5h35.5c11.2 0 21.4-6.7 25.8-17l11.2-26.1c6.3-14.8 23.8-21.2 38.3-14 14.5-7.2 32-.8 38.4 14.1l11.2 26.1c4.4 10.3 14.6 17 25.8 17h35.5l6.6-27.5c11.4-48.2-25.1-94.5-74.6-94.5h-2c-16.7 0-32.2 8.7-40.9 23z" fill="#323d2c"/><g id="XMLID_1345_"><path id="XMLID_831_" d="m138 151h10v10h-10z" fill="#e67368"/></g><g id="XMLID_1344_"><path id="XMLID_830_" d="m364 151h10v10h-10z" fill="#e67368"/></g><path id="XMLID_1400_" d="m206 507-176-58v-242l45-25 181 58 181-58 45 25v242l-176 58z" fill="#9ad2fc"/><path id="XMLID_1399_" d="m180.3 463.3-124.6-41.1v-171.4l124.6 41z" fill="#c075ac"/><path id="XMLID_1397_" d="m206 265h100v242h-100z" fill="#f37787"/><path id="XMLID_800_" d="m206 265h100v242h-100z" fill="#68a1d6"/><path id="XMLID_1395_" d="m75 182-45 25 176 58 50-25z" fill="#ebeadf"/><path id="XMLID_932_" d="m46.5 197.8 179.1 57.4 12.8-6.4-179.9-57.6z" fill="#c4c1ab"/><path id="XMLID_1394_" d="m437 182 45 25-176 58-50-25z" fill="#ebeadf"/><path id="XMLID_864_" d="m286.4 255.2 179.1-57.4-12-6.6-179.9 57.6z" fill="#c4c1ab"/><path id="XMLID_1396_" d="m269.1 240h-26.1c-16.3 0-30.9 9.9-36.9 25h100c-6.1-15.1-20.8-25-37-25z" fill="#3179af"/><path id="XMLID_1393_" d="m231 295h50v50h-50z" fill="#b23998"/><g id="XMLID_1392_"><path id="XMLID_829_" d="m236 367h10v110h-10z" fill="#3179af"/></g><g id="XMLID_1391_"><path id="XMLID_828_" d="m266 367h10v110h-10z" fill="#3179af"/></g><path id="XMLID_1390_" d="m17.7 426.2 21.5 6.2c7.9 2.3 15.8-3.6 15.8-11.9v-47.5c0-9.5-6.3-17.8-15.4-20.5l-12.1-3.5c-11.2-3.2-22.5 5.2-22.5 17v43.3c0 7.8 5.2 14.7 12.7 16.9z" fill="#f7c8a9"/><g fill="#ef937e"><path id="XMLID_925_" d="m24.8 374.4 30.2 8.8v-10.2c0-.1 0-.1 0-.2l-27.4-8z"/><path id="XMLID_863_" d="m24.8 395.4 30.2 8.8v-10.4l-27.4-8z"/><path id="XMLID_842_" d="m27.6 406.8-2.8 9.6 29.4 8.5c.5-1.4.8-2.9.8-4.4v-5.7z"/></g><path id="XMLID_1386_" d="m494.3 426.2-21.5 6.2c-7.9 2.3-15.8-3.6-15.8-11.9v-47.5c0-9.5 6.3-17.8 15.4-20.5l12.1-3.5c11.3-3.3 22.5 5.2 22.5 16.9v43.3c0 7.9-5.2 14.8-12.7 17z" fill="#f7c8a9"/><path id="XMLID_938_" d="m487.2 374.4-2.8-9.6-27.4 8v.2 10.2z" fill="#ef937e"/><path id="XMLID_929_" d="m457 393.8v10.4l30.2-8.8-2.8-9.6z" fill="#ef937e"/><path id="XMLID_845_" d="m484.4 406.8-27.4 8v5.7c0 1.6.3 3.1.8 4.4l29.4-8.5z" fill="#ef937e"/><g id="XMLID_1380_"><path id="XMLID_822_" d="m389 215.8h10v108.4h-10z" fill="#3179af" transform="matrix(.313 .95 -.95 .313 527.11 -188.713)"/></g><g id="XMLID_1379_"><path id="XMLID_807_" d="m389 249.8h10v108.4h-10z" fill="#3179af" transform="matrix(.313 .95 -.95 .313 559.401 -165.355)"/></g><g id="XMLID_1378_"><path id="XMLID_806_" d="m371.7 307.8h10v71.9h-10z" fill="#3179af" transform="matrix(.313 .95 -.95 .313 585.215 -121.627)"/></g><ellipse id="XMLID_1377_" cx="118" cy="357" fill="#b23998" rx="33.7" ry="63"/><path id="XMLID_922_" d="m256 69.8c10.1-5.1 21.7-3.4 30 3.1v-66.6c-12.4 2.9-23.2 10.6-30 21.7z" fill="#1c2617"/></g><g id="XMLID_3711_"><g id="XMLID_549_"><path id="XMLID_3183_" d="m180.3 468.3c-.5 0-1.1-.1-1.6-.3l-124.6-41.1c-2-.7-3.4-2.6-3.4-4.7v-171.4c0-1.6.8-3.1 2.1-4.1 1.3-.9 3-1.2 4.5-.7l124.7 41.1c2 .7 3.4 2.6 3.4 4.7v171.4c0 1.6-.8 3.1-2.1 4.1-.9.6-1.9 1-3 1zm-119.6-49.8 114.7 37.8v-160.8l-114.7-37.8z" fill="#060d1a"/></g><g id="XMLID_824_"><path id="XMLID_3180_" d="m306 512h-100c-2.8 0-5-2.2-5-5v-242c0-2.8 2.2-5 5-5h100c2.8 0 5 2.2 5 5v242c0 2.8-2.2 5-5 5zm-95-10h90v-232h-90z" fill="#060d1a"/></g><g id="XMLID_826_"><path id="XMLID_3176_" d="m306 270h-100c-1.7 0-3.2-.8-4.1-2.2s-1.1-3.1-.5-4.7c6.8-17.1 23.2-28.1 41.6-28.1h26.1c18.4 0 34.7 11 41.6 28.1.6 1.5.4 3.3-.5 4.7-1 1.4-2.5 2.2-4.2 2.2zm-91.7-10h83.4c-6.4-9.3-17-15-28.6-15h-26.1c-11.7 0-22.3 5.7-28.7 15z" fill="#060d1a"/></g><g id="XMLID_832_"><path id="XMLID_3171_" d="m281 350h-50c-2.8 0-5-2.2-5-5v-50c0-2.8 2.2-5 5-5h50c2.8 0 5 2.2 5 5v50c0 2.8-2.2 5-5 5zm-45-10h40v-40h-40z" fill="#060d1a"/></g><g id="XMLID_840_"><path id="XMLID_3170_" d="m236 367h10v110h-10z" fill="#060d1a"/></g><g id="XMLID_531_"><path id="XMLID_3169_" d="m266 367h10v110h-10z" fill="#060d1a"/></g><g id="XMLID_530_"><path id="XMLID_3166_" d="m42.7 437.9c-1.6 0-3.3-.2-4.9-.7l-21.5-6.2c-9.6-2.8-16.3-11.7-16.3-21.7v-43.3c0-7.2 3.3-13.8 9-18.1s13-5.6 19.9-3.6l12.1 3.5c11.2 3.2 19 13.6 19 25.3v47.5c0 5.5-2.5 10.6-6.9 13.9-3.1 2.2-6.7 3.4-10.4 3.4zm-23.6-16.5 21.5 6.2c2.3.7 4.6.2 6.5-1.2s2.9-3.6 2.9-5.9v-47.5c0-7.2-4.8-13.7-11.8-15.7l-12.1-3.5c-3.8-1.1-7.9-.4-11.1 2s-5 6.1-5 10.1v43.3c0 5.6 3.7 10.6 9.1 12.2z" fill="#060d1a"/></g><g id="XMLID_535_"><path id="XMLID_3165_" d="m25.6 368.8h30v10h-30z" fill="#060d1a" transform="matrix(.96 .279 -.279 .96 105.725 3.487)"/></g><g id="XMLID_536_"><path id="XMLID_3164_" d="m25.6 389.8h30v10h-30z" fill="#060d1a" transform="matrix(.96 .279 -.279 .96 111.574 4.318)"/></g><g id="XMLID_538_"><path id="XMLID_3163_" d="m25.6 410.8h30v10h-30z" fill="#060d1a" transform="matrix(.96 .279 -.279 .96 117.423 5.149)"/></g><g id="XMLID_547_"><path id="XMLID_3160_" d="m469.3 437.9c-3.7 0-7.3-1.2-10.4-3.5-4.4-3.3-6.9-8.4-6.9-13.9v-47.5c0-11.6 7.8-22 19-25.3l12.1-3.5c6.9-2 14.1-.7 19.9 3.6s9 10.9 9 18.1v43.3c0 10-6.7 18.9-16.3 21.7l-21.5 6.2c-1.6.6-3.2.8-4.9.8zm20.1-84.6c-1.2 0-2.4.2-3.6.5l-12.1 3.5c-6.9 2-11.8 8.4-11.8 15.7v47.5c0 2.3 1.1 4.5 2.9 5.9 1.9 1.4 4.2 1.8 6.5 1.2l21.5-6.2c5.4-1.6 9.1-6.5 9.1-12.1v-43.3c0-4-1.8-7.7-5-10.1-2.2-1.7-4.8-2.6-7.5-2.6z" fill="#060d1a"/></g><g id="XMLID_546_"><path id="XMLID_3157_" d="m466.4 358.8h10v30h-10z" fill="#060d1a" transform="matrix(.279 .96 -.96 .279 699.147 -183.05)"/></g><g id="XMLID_539_"><path id="XMLID_3156_" d="m466.4 379.8h10v30h-10z" fill="#060d1a" transform="matrix(.279 .96 -.96 .279 719.317 -167.899)"/></g><g id="XMLID_533_"><path id="XMLID_3155_" d="m466.4 400.8h10v30h-10z" fill="#060d1a" transform="matrix(.279 .96 -.96 .279 739.486 -152.748)"/></g><g id="XMLID_548_"><path id="XMLID_3154_" d="m48.3 216.2h175v10h-175z" fill="#060d1a" transform="matrix(.952 .305 -.305 .952 73.988 -30.899)"/></g><g id="XMLID_532_"><path id="XMLID_3153_" d="m371.2 133.7h10v175h-10z" fill="#060d1a" transform="matrix(.305 .952 -.952 .305 472.017 -204.535)"/></g><g id="XMLID_720_"><path id="XMLID_3152_" d="m389 215.8h10v108.4h-10z" fill="#060d1a" transform="matrix(.313 .95 -.95 .313 527.11 -188.713)"/></g><g id="XMLID_721_"><path id="XMLID_3150_" d="m389 249.8h10v108.4h-10z" fill="#060d1a" transform="matrix(.313 .95 -.95 .313 559.401 -165.355)"/></g><g id="XMLID_722_"><path id="XMLID_3149_" d="m371.7 307.8h10v71.9h-10z" fill="#060d1a" transform="matrix(.313 .95 -.95 .313 585.215 -121.627)"/></g><g id="XMLID_550_"><path id="XMLID_3129_" d="m118 425c-21.7 0-38.7-29.9-38.7-68s17-68 38.7-68 38.7 29.9 38.7 68-17 68-38.7 68zm0-126c-15.5 0-28.7 26.6-28.7 58s13.1 58 28.7 58 28.7-26.6 28.7-58-13.2-58-28.7-58z" fill="#060d1a"/></g><g id="XMLID_620_"><g id="XMLID_1337_"><path id="XMLID_3144_" d="m157.7 211.2c-1.6-7.2-2.4-14.6-2.4-22v-62.2h10v62.2c0 6.7.7 13.3 2.2 19.8z" fill="#060d1a"/></g><g id="XMLID_2586_"><path id="XMLID_3143_" d="m346.7 127h10v58.3h-10z" fill="#060d1a"/></g><g id="XMLID_1296_"><path id="XMLID_3142_" d="m202 138h31v10h-31z" fill="#060d1a"/></g><g id="XMLID_1292_"><path id="XMLID_3141_" d="m228 162h10v22h-10z" fill="#060d1a"/></g><g id="XMLID_1254_"><path id="XMLID_3140_" d="m279 138h31v10h-31z" fill="#060d1a"/></g><g id="XMLID_1250_"><path id="XMLID_3139_" d="m274 162h10v22h-10z" fill="#060d1a"/></g><g id="XMLID_1232_"><path id="XMLID_3136_" d="m366.8 190.3h-15.2c-2.8 0-5-2.2-5-5v-58.3c0-2.8 2.2-5 5-5h15.2c18.8 0 34.2 15.3 34.2 34.2 0 18.8-15.3 34.1-34.2 34.1zm-10.1-10h10.2c13.3 0 24.2-10.8 24.2-24.2s-10.9-24.1-24.3-24.1h-10.2v48.3z" fill="#060d1a"/></g><g id="XMLID_1227_"><path id="XMLID_3133_" d="m160.3 190.3h-15.2c-18.8 0-34.2-15.3-34.2-34.2 0-18.8 15.3-34.2 34.2-34.2h15.2c2.8 0 5 2.2 5 5v58.3c0 2.9-2.2 5.1-5 5.1zm-15.1-58.3c-13.3 0-24.2 10.8-24.2 24.2s10.8 24.2 24.2 24.2h10.2v-48.4z" fill="#060d1a"/></g><g id="XMLID_779_"><path id="XMLID_3130_" d="m366.8 132h-35.5c-13.3 0-25.2-7.9-30.4-20l-11.2-26.1c-2.5-5.9-7.2-10.4-13.3-12.6-6-2.2-12.5-1.8-18.3 1-1.4.7-3.1.7-4.5 0-5.7-2.9-12.2-3.2-18.3-1-6 2.2-10.8 6.7-13.3 12.6l-11 26c-5.2 12.2-17.2 20-30.4 20h-35.5c-2.3 0-4.3-1.6-4.9-3.8l-6.6-27.5c-5.8-24.5-.3-49.8 15.3-69.5s39.1-31.1 64.2-31.1h2c15.9 0 30.9 7.3 40.9 19.4 10-12.1 25-19.4 40.9-19.4h2c25.1 0 48.5 11.3 64.1 31.1s21.2 45.1 15.3 69.5l-6.6 27.5c-.5 2.3-2.6 3.9-4.9 3.9zm-98.3-70.2c3.8 0 7.7.7 11.4 2 8.6 3.2 15.4 9.6 19 18l11.2 26.1c3.6 8.5 12 14 21.2 14h31.5l5.7-23.7c5.1-21.5.2-43.7-13.4-61s-34.1-27.2-56.2-27.2h-2c-14.9 0-28.9 7.9-36.6 20.6-.9 1.5-2.5 2.4-4.3 2.4s-3.4-.9-4.3-2.4c-7.7-12.7-21.7-20.6-36.6-20.6h-2c-22.1 0-42.6 9.9-56.2 27.3s-18.6 39.6-13.4 61l5.7 23.7h31.5c9.2 0 17.6-5.5 21.2-14l11.1-26.1c3.6-8.5 10.4-14.9 19-18 7.9-2.9 16.3-2.7 23.9.5 4.1-1.7 8.4-2.6 12.6-2.6z" fill="#060d1a"/></g><g id="XMLID_551_"><path id="XMLID_3128_" d="m138 151h10v10h-10z" fill="#060d1a"/></g><g id="XMLID_718_"><path id="XMLID_3127_" d="m364 151h10v10h-10z" fill="#060d1a"/></g><g id="XMLID_611_"><path id="XMLID_3113_" d="m251 28h10v42h-10z" fill="#060d1a"/></g></g><g id="XMLID_827_"><path id="XMLID_2880_" d="m206 512c-.5 0-1.1-.1-1.6-.3l-176-58c-2-.7-3.4-2.6-3.4-4.7v-19.3h10v15.6l166 54.7v-231.4l-166-54.7v115.5h-10v-122.4c0-1.6.8-3.1 2.1-4.1 1.3-.9 3-1.2 4.5-.7l176 58c2 .7 3.4 2.6 3.4 4.7v242c0 1.6-.8 3.1-2.1 4.1-.8.7-1.9 1-2.9 1z" fill="#060d1a"/></g><g id="XMLID_823_"><path id="XMLID_2879_" d="m306 512c-1 0-2.1-.3-2.9-.9-1.3-.9-2.1-2.4-2.1-4.1v-242c0-2.2 1.4-4.1 3.4-4.7l176-58c1.5-.5 3.2-.2 4.5.7s2.1 2.4 2.1 4.1v142.7h-10v-135.9l-166 54.7v231.5l166-54.7v-15.6h10v19.2c0 2.2-1.4 4.1-3.4 4.7l-176 58c-.5.2-1.1.3-1.6.3z" fill="#060d1a"/></g><g id="XMLID_803_"><path id="XMLID_966_" d="m204.4 269.7-176-58c-1.9-.6-3.2-2.3-3.4-4.3s.8-3.9 2.6-4.8l45-25c1.2-.7 2.6-.8 4-.4l181 58-3.1 9.5-178.9-57.3-33.1 18.4 165.2 54.4z" fill="#060d1a"/></g><g id="XMLID_801_"><path id="XMLID_961_" d="m307.6 269.7-3.1-9.5 165.2-54.4-33.1-18.4-178.9 57.3-3.1-9.5 181-58c1.3-.4 2.7-.3 4 .4l45 25c1.7 1 2.7 2.9 2.6 4.8-.2 2-1.5 3.7-3.4 4.3z" fill="#060d1a"/></g></g></g></svg>